<?xml version="1.0" standalone="no"?>
<!DOCTYPE svg PUBLIC "-//W3C//DTD SVG 20010904//EN"
 "http://www.w3.org/TR/2001/REC-SVG-20010904/DTD/svg10.dtd">
<svg version="1.0" xmlns="http://www.w3.org/2000/svg"
 width="221.000000pt" height="221.000000pt" viewBox="0 0 221.000000 221.000000"
 preserveAspectRatio="xMidYMid meet">
<metadata>
Created by potrace 1.14, written by Peter Selinger 2001-2017
</metadata>
<g transform="translate(0.000000,221.000000) scale(0.100000,-0.100000)"
fill="#000000" stroke="none">
<path d="M1955 1889 c-16 -5 -43 -10 -60 -12 -16 -2 -41 -9 -55 -14 -14 -6
-45 -17 -70 -25 -65 -22 -114 -42 -120 -48 -3 -3 -23 -17 -46 -31 -50 -33
-186 -169 -169 -169 3 0 1 -8 -4 -18 -12 -22 -69 -28 -77 -8 -8 20 -135 69
-220 83 -71 13 -197 7 -234 -10 -19 -8 -46 -19 -59 -22 -61 -18 -174 -114
-254 -215 -34 -42 -58 -135 -64 -247 -4 -60 -9 -83 -18 -83 -7 0 -15 -3 -17
-7 -1 -5 -19 -16 -38 -25 -84 -42 -201 -147 -260 -233 -14 -21 -32 -45 -40
-54 -18 -20 -70 -127 -70 -143 0 -6 -7 -16 -17 -23 -13 -10 -16 -30 -17 -98
-1 -81 0 -86 27 -111 59 -55 170 -42 238 27 22 22 42 51 45 64 4 13 9 23 13
23 4 0 18 25 31 57 19 47 23 75 25 172 1 124 8 149 49 171 14 7 26 17 26 22 0
4 15 8 33 8 32 0 32 0 33 -53 2 -70 5 -79 39 -116 35 -38 73 -57 127 -63 42
-5 23 -83 -34 -140 -9 -9 -29 -41 -44 -70 -14 -29 -32 -60 -39 -68 -27 -32
-37 -87 -24 -125 12 -33 15 -35 59 -35 44 0 45 1 23 18 -33 26 -34 69 -4 129
19 38 32 53 47 53 21 0 21 -4 20 -100 l-2 -100 533 0 532 0 0 58 c0 31 2 90 5
131 l5 74 -52 53 c-29 30 -56 54 -62 54 -5 0 -30 16 -54 35 -24 19 -47 35 -51
35 -4 0 -19 11 -34 24 -40 34 -33 66 21 86 43 16 132 87 133 106 0 6 6 16 13
22 21 17 18 62 -5 100 -24 39 -59 77 -70 77 -21 0 -33 32 -34 91 -2 39 -9 74
-18 89 -9 13 -16 31 -16 38 0 8 -7 20 -15 27 -9 7 -13 15 -10 18 2 3 -3 11
-12 17 -9 7 -18 24 -20 37 -4 27 51 148 67 148 5 0 15 6 23 14 38 39 116 50
212 30 68 -14 160 -7 197 16 18 11 38 20 45 20 18 0 71 52 81 80 15 39 5 90
-22 117 -38 38 -116 57 -171 42z m-307 -1316 c15 -9 46 -36 69 -58 31 -32 41
-47 36 -63 -9 -35 -25 -26 -83 49 -73 93 -77 106 -22 72z"/>
</g>
</svg>
